/* XPM */
static char *bitcoin___[] = {
/* columns rows colors chars-per-pixel */
"64 64 17 1 ",
"  c #1D1C1D",
". c #1C1D1E",
"X c #1D1D1E",
"o c #0CB297",
"O c #0DB297",
"+ c #0CB397",
"@ c #0DB198",
"# c #0EB198",
"$ c #0EB099",
"% c #0FB099",
"& c #0EB199",
"* c #0FB199",
"= c #0CB298",
"- c #0DB298",
"; c #0CB398",
": c #0DB398",
"> c None",
/* pixels */
">>>>>>>>>>>>>>>>>>>>>>>>>>>>>>>>>>>>>>>>>>>>>>>>>>>>>>>>>>>>>>>>",
">>>>>>>>>>>>>>>>>>>>>>>>>>>>>>>>>>>>>>>>>>>>>>>>>>>>>>>>>>>>>>>>",
">>>>>>>>>>>>>>>>>>>>>>>>>>>>>>>>>>>>>>>>>>>>>>>>>>>>>>>>>>>>>>>>",
">>>>>>>>>>>>>>>>>>>>>>>>>>>>--->>>->>>>>>>>>>>>>>>>>>>>>>>>>>>>>",
">>>>>>>>>>>>>>>>>>>>>>>>>>>-O++->>--->>>>>>>>>>>>>>>>>>>>>>>>>>>",
">>>>>>>>>>>>>>>>>>>>>>>>>>>-+-O->>-+O-->>>>>>>>>>>>>>>>>>>>>>>>>",
">>>>>>>>>>>>>>>>>>>>>>>>>>-O+-+->>-+-+-->>>>>>>>>>>>>>>>>>>>>>>>",
">>>>>>>>>>>>>>>>>>>>>>>>-OO---->>>-+---O-->>>>>>>>>>>>>>>>>>>>>>",
">>>>>>>>>>>>>>>>>>>>>>>-O->>>>>>>>-OO-O-;+-->>>>>>>>>>>>>>>>>>>>",
">>>>>>>>>>>>>>>>>>>---O->>>>>>>>>>>---:-+-+-->>>>>>>>>>>>>>>>>>>",
">>>>>>>>>>>>>>>>>>---;+>>>>>>>>>>>>>>-O------->>>>>>>>>>>>>>>>>>",
">>>>>>>>>>>>>>>>>>----+->>>>>>>>>>>>>>--++-+--->>>>>>>>>>>>>>>>>",
">>>>>>>>>>>>>>>>>>>-+O->>>>>>>>>>>>>>>>>---O-+%>>>>>>>>>>>>>>>>>",
">>>>>>>>>>>>>>>>>>>-+->>>>>>>>>>>>>>>>>>>>--++->>>>>>>>>>>>>>>>>",
">>>>>>>>>>>>>>>>>>>%->>>>>>>>>>>>>>>>>>>>>>>--->>>>>>>>>>>>>>>>>",
">>>>>>>>>>>>>>>>>>>-->>>>>>>>>---->>>>>>>>>>>-->>>>>>>>>>>>>>>>>",
">>>>>>>>>>>>>>>>>>>-->>>>>>>--+++O->>>>>>>>>>>>>>>>>>>>>>>>>>>>>",
">>>>>>>>>>>>>>>>>>>%->>>>>>-OO---:+-->>>>>>>>>>>>>>>>>>>>>>>>>>>",
">>>>>>>>>>>>>>>>>>>-->>>>>>>>-OO-+-+O->>>>>>>>>>>>>>>>>>>>>>>>>>",
">>>>>>>>>>>>>>>>>>>--->>>>>>>>--+----O+->>>>>>>>>>>>>>>>>>>>>>>>",
">>>>>>>>>>>>>>>>>>-+-+->>>>>>>>>--+-+--+-->>>>>>>>>>>>>>>>>>>>>>",
">>>>>>>>>>>>>>>>>>---+->>>>>>>>>>--+--+-OO->>>>>>>>>>>>>>>>>>>>>",
">>>>>>>>>>>>>>>>>>-OOO->>>>>>>>>>>>-O+--+O-->>>>>>>>>>>>>>>>>>>>",
">>>>>>>>>>>>>>>>>>>--->>>>>>>>>>>>>>>-++-->>>>>>>>>>>>>>>>>>>>>>",
">>>>>>>>>>>>>>>>>>>>>>>>--->>>>>>>>>>>-->>>>>>>>>>>>>>>>>>>>>>>>",
">>>>>>>>>>>>>>>>>>>>>>---O-->>>>>>>>>>>>>>---->>>>>>>>>>>>>>>>>>",
">>>>>>>>>>>>>>>>>>>>--+:---O-->>>>>>>>>>>>++-O>>>>>>>>>>>>>>>>>>",
">>>>>>>>>>>>>>>>>>>>>>-O+-+-+O->>>>>>>>>>-+--O->>>>>>>>>>>>>>>>>",
">>>>>>>>>>>>>>>>>>>>>>>--+:---++->>>>>>>>>-OO->>>>>>>>>>>>>>>>>>",
">>>>>>>>>>>>>>>>>>>>>>>>>-O--+----->>>>>>>---->>>>>>>>>>>>>>>>>>",
">>>>>>>>>>>>>>>>>>>>>>>>>>--+--+-O+->>>>>>>O->>>>>>>>>>>>>>>>>>>",
">>>>>>>>>>>>>>>>>>>>>>>>>>>>-++---:-->>>>>>O->>>>>>>>>>>>>>>>>>>",
">>>>>>>>>>>>>>>>>>>>>>>>>>>>>>-O++-->>>>>>>+->>>>>>>>>>>>>>>>>>>",
">>>>>>>>>>>>>>>>>>->>>>>>>>>>>>--->>>>>>>>>O->>>>>>>>>>>>>>>>>>>",
">>>>>>>>>>>>>>>>>>-+->>>>>>>>>>>>>>>>>>>>>>+->>>>>>>>>>>>>>>>>>>",
">>>>>>>>>>>>>>>>>>-O--->>>>>>>>>>>>>>>>>>>-+->>>>>>>>>>>>>>>>>>>",
">>>>>>>>>>>>>>>>>>-O-++-%>>>>>>>>>>>>>>>>-O-O->>>>>>>>>>>>>>>>>>",
">>>>>>>>>>>>>>>>>>-+---+O->>>>>>>>>>>>>>>-+-+->>>>>>>>>>>>>>>>>>",
">>>>>>>>>>>>>>>>>>-O+-O-:+-->>>>>>>>>>>>>-+-+->>>>>>>>>>>>>>>>>>",
">>>>>>>>>>>>>>>>>>>--++-O-+O-%>>>>>>>>>>-+--->>>>>>>>>>>>>>>>>>>",
">>>>>>>>>>>>>>>>>>>>>---:---+->>>>>>>>-O->>>>>>>>>>>>>>>>>>>>>>>",
">>>>>>>>>>>>>>>>>>>>>>>-+:---+->>-O---O->>>>>>>>>>>>>>>>>>>>>>>>",
">>>>>>>>>>>>>>>>>>>>>>>>%-+O-+->-+-:O->>>>>>>>>>>>>>>>>>>>>>>>>>",
">>>>>>>>>>>>>>>>>>>>>>>>>>--++->-+--O->>>>>>>>>>>>>>>>>>>>>>>>>>",
">>>>>>>>>>>>>>>>>>>>>>>>>>>>--->>---->>>>>>>>>>>>>>>>>>>>>>>>>>>",
">>>>>>>>>>>>>>>>>>>>>>>>>>>>>%->>>-->>>>>>>>>>>>>>>>>>>>>>>>>>>>",
">>>>>>>>>>>>>>>>>>>>>>>>>>>>>>>>>>>>>>>>>>>>>>>>>>>>>>>>>>>>>>>>",
">>>>>>>>>>>>>>>>>>>>>>>>>>>>>>>>>>>>>>>>>>>>>>>>>>>>>>>>>>>>>>>>",
">>>>>>XX>>>>>>>XX>>>>>>X>X>>>>>>XX.XXX>>>>>>>>>>>>>>>>>>>>>>>>>>",
">>>>>>XX>>>>>>>XX>>>>>XX>XX>>>>XXXXXXXXXX>>>>>>>>>X>>>>>>>>>>>>>",
">>>>>>XX>>>>>>>XX>>>XX>>>>XXX>>XXX>>>XXXXX>>>>>>>XXX>>>>>>>>>>>>",
">>>>>>XX>>>>>>>XX>>>X>>>>>>XX>>XXX>>>>>XXX>>>>>>>XXX>>>>>>>>>>>>",
">>>>>>XX>>>>>>>XX>>>X>>XX>>>>>>XXX>>>>>>XXX>>>>>XX>XX>>>>>>>>>>>",
">>>>>>XX>>>>>>>XX>>>X>>XXXX>>>>XXX>>>>>>>XX>>>>XX>>>XX>>>>>>>>>>",
">>>>>>XX>>>>>>>XX>>XX>>>>XXX>>>XXX>>>>>>>XX>>>>XX>>>XX>>>>>>>>>>",
">>>>>>XX>>>>>>>XX>>>>X>>>>>>>>>XXX>>>>>>>XX>>>XX>>>>>XX>>>>>>>>>",
">>>>>>XX>>>>>>>XX>>>>XXX>>>>X>>XXX>>>>>>>XX>>>XX>>X>>XX>>>>>>>>>",
">>>>>>XX>>>>>>>XX>>>>>XXXX>>X>>XXX>>>>>>>XX>>XX>>>X>>>XX>>>>>>>>",
">>>>>>XX>>>>>>>XX>>>>>>>X>>>X>>XXX>>>>>>XXX>XXX>>X>X>>XX>>>>>>>>",
">>>>>>XXX>>>>>XXX>>XXX>>>>>XX>>XXX>>>>>XXX>>XX>>XX>XX>>XX>>>>>>>",
">>>>>>>XXX>>>XXXX>>>XXX>>>>XX>>XXXXXXXXXXX>XX>>>>>>>>>>>XX>>>>>>",
">>>>>>>XXXXXXXXX>>>>>XXXXXX>>>>XXXXXXXXX>>>XX>>>>>>>>>>>XX>>>>>>",
">>>>>>>>>XXXXX>>>>>>>>>>>X>>>>>>X>>>>>>>>>>>>>>>>>>>>>>>>>>>>>>>",
">>>>>>>>>>>>>>>>>>>>>>>>>>>>>>>>>>>>>>>>>>>>>>>>>>>>>>>>>>>>>>>>"
};
