/* XPM */
static char *bitcoin___[] = {
/* columns rows colors chars-per-pixel */
"16 16 12 1 ",
"  c #1E0B0F",
". c #1D1719",
"X c #1D1C1D",
"o c #1C1D1E",
"O c #1D1D1E",
"+ c #0DB197",
"@ c #0DB297",
"# c #0DB298",
"$ c #0DB499",
"% c #0DB59A",
"& c #0DB69B",
"* c None",
/* pixels */
"****************",
"******####******",
"*****#***##*****",
"*****#*****#****",
"*******##*******",
"*****#***##*****",
"*****##***#*****",
"******###*******",
"****************",
"*****@@***#*****",
"******&#&&******",
"****************",
"******** .**X***",
"**********o*X***",
"**********XX****",
"**XX****oo******"
};
