/* XPM */
static char *bitcoin___[] = {
/* columns rows colors chars-per-pixel */
"128 128 26 1 ",
"  c #1D1D1E",
". c #0FAF9A",
"X c #10AE9A",
"o c #10AF9A",
"O c #11AF9A",
"+ c #11AE9B",
"@ c #11AF9B",
"# c #12AF9B",
"$ c #0CB297",
"% c #0DB297",
"& c #0CB397",
"* c #0DB397",
"= c #0DB198",
"- c #0EB198",
"; c #0EB099",
": c #0FB099",
"> c #0EB199",
", c #0FB199",
"< c #0CB298",
"1 c #0DB298",
"2 c #0CB398",
"3 c #0DB398",
"4 c #0FB09A",
"5 c #10B099",
"6 c #10B09A",
"7 c None",
/* pixels */
"77777777777777777777777777777777777777777777777777777777777777777777777777777777777777777777777777777777777777777777777777777777",
"77777777777777777777777777777777777777777777777777777777777777777777777777777777777777777777777777777777777777777777777777777777",
"77777777777777777777777777777777777777777777777777777777777777777777777777777777777777777777777777777777777777777777777777777777",
"77777777777777777777777777777777777777777777777777777777777777777777777777777777777777777777777777777777777777777777777777777777",
"77777777777777777777777777777777777777777777777777777777777777777777777777777777777777777777777777777777777777777777777777777777",
"77777777777777777777777777777777777777777777777777777777777777777777777777777777777777777777777777777777777777777777777777777777",
"777777777777777777777777777777777777777777777777777777777===67777777=67777777777777777777777777777777777777777777777777777777777",
"77777777777777777777777777777777777777777777777777777776$&&&&$677777$$6777777777777777777777777777777777777777777777777777777777",
"7777777777777777777777777777777777777777777777777777776$3=3==&&77777=3&&67777777777777777777777777777777777777777777777777777777",
"777777777777777777777777777777777777777777777777777777=&=$&3&3&=77773&&&&=677777777777777777777777777777777777777777777777777777",
"777777777777777777777777777777777777777777777777777777&&33333=&=7777=&$63&&=#777777777777777777777777777777777777777777777777777",
"777777777777777777777777777777777777777777777777777777$&=3333=&=77773&$3$==&3=77777777777777777777777777777777777777777777777777",
"77777777777777777777777777777777777777777777777777777=&=&3333=&=7777=&&333$33&=6777777777777777777777777777777777777777777777777",
"7777777777777777777777777777777777777777777777777776$&3&3=$$=3&67777$&$33333=3&&=67777777777777777777777777777777777777777777777",
"77777777777777777777777777777777777777777777777776=&3&$=&333&&$77777$&=333333&&=&&=777777777777777777777777777777777777777777777",
"777777777777777777777777777777777777777777777777=$&3&=67==&$36777777=&333333333&=3&&67777777777777777777777777777777777777777777",
"7777777777777777777777777777777777777777777777=$&33==7777777777777776&=&333333333$=3&=677777777777777777777777777777777777777777",
"77777777777777777777777777777777777777776$666=&3&&=777777777777777777=&=&&333333333$3&&=6777777777777777777777777777777777777777",
"777777777777777777777777777777777777776=&&&$$&3&=677777777777777777777=&&=$333333333&33&$677777777777777777777777777777777777777",
"7777777777777777777777777777777777777+$&=3=&3&$6777777777777777777777776$&3=&333333333&=3&&7777777777777777777777777777777777777",
"7777777777777777777777777777777777777=&3&=&$=&=77777777777777777777777777=3&=3&333333333$=&=777777777777777777777777777777777777",
"7777777777777777777777777777777777777$&=33333&=7777777777777777777777777776=&&=$&33333333$3&677777777777777777777777777777777777",
"7777777777777777777777777777777777777$3$3333=&=77777777777777777777777777777==33=&33333333=&&77777777777777777777777777777777777",
"7777777777777777777777777777777777777$&&33333&=7777777777777777777777777777777==&3=$3333333&$77777777777777777777777777777777777",
"7777777777777777777777777777777777777=&=&3$$=&6777777777777777777777777777777776=$&==&3333=&=77777777777777777777777777777777777",
"77777777777777777777777777777777777777$&=$=3&=777777777777777777777777777777777776=&&3&&333&377777777777777777777777777777777777",
"777777777777777777777777777777777777777$&&3$=777777777777777777777777777777777777776=&3=&3=&=77777777777777777777777777777777777",
"777777777777777777777777777777777777777=&$=777777777777777777777777777777777777777777=&33=&&377777777777777777777777777777777777",
"777777777777777777777777777777777777777=&$777777777777777777777777777777777777777777776=$&=&377777777777777777777777777777777777",
"777777777777777777777777777777777777777=&$77777777777777777777777777777777777777777777776=&&=77777777777777777777777777777777777",
"777777777777777777777777777777777777777=&$7777777777777777777=====7777777777777777777777776&&77777777777777777777777777777777777",
"777777777777777777777777777777777777777=&$77777777777777777=$3&&&&=6777777777777777777777777677777777777777777777777777777777777",
"777777777777777777777777777777777777777=&$777777777777777=$&3=3=3=&&=67777777777777777777777777777777777777777777777777777777777",
"777777777777777777777777777777777777777=&$77777777777776=&&=$&3&3&3=&3=777777777777777777777777777777777777777777777777777777777",
"777777777777777777777777777777777777777=&$777777777777=&33&&3333333$=3&=67777777777777777777777777777777777777777777777777777777",
"777777777777777777777777777777777777777=&$7777777777777=&&=$33333333&$3&$=777777777777777777777777777777777777777777777777777777",
"777777777777777777777777777777777777777=$$777777777777776$&3=&33333333&=3&$67777777777777777777777777777777777777777777777777777",
"777777777777777777777777777777777777777=&$+777777777777777=$&==&33333333$=&&=677777777777777777777777777777777777777777777777777",
"77777777777777777777777777777777777777=&=$$=7777777777777776333=&33333333&$=&&67777777777777777777777777777777777777777777777777",
"7777777777777777777777777777777777777$$=&=33=7777777777777777=$&3=&33333333&3&&=677777777777777777777777777777777777777777777777",
"777777777777777777777777777777777777=&=$3&=3&677777777777777777=&&=$33333333&$3&&$7777777777777777777777777777777777777777777777",
"777777777777777777777777777777777777$3&333&=&=7777777777777777776$&3=&33333333&=3&&677777777777777777777777777777777777777777777",
"777777777777777777777777777777777776$3$333&3&=77777777777777777777=$&==&33333333$=3&=6777777777777777777777777777777777777777777",
"777777777777777777777777777777777777$3$333&=&=7777777777777777777776=&&3$33333333&$=&&=77777777777777777777777777777777777777777",
"777777777777777777777777777777777777=3=$3=$=&6777777777777777777777776&&3=&3333333&$=&&=7777777777777777777777777777777777777777",
"777777777777777777777777777777777777=$33=3=&=77777777777777777777777777$$&3$&333$&=&&&677777777777777777777777777777777777777777",
"77777777777777777777777777777777777776$3&&$=77777777777777777777777777776=&3=3=3=3&&67777777777777777777777777777777777777777777",
"777777777777777777777777777777777777777===67777777777777777777777777777777=$&&&&&&=777777777777777777777777777777777777777777777",
"7777777777777777777777777777777777777777777777777666777777777777777777777777=====77777777777777777777777777777777777777777777777",
"77777777777777777777777777777777777777777777777=$$$$$=77777777777777777777777777777777777777777777777777777777777777777777777777",
"777777777777777777777777777777777777777777777=$&&333&&=6777777777777777777777777777776$$$=67777777777777777777777777777777777777",
"77777777777777777777777777777777777777777776$&3==&$$==$$=777777777777777777777777777==&&&&&=777777777777777777777777777777777777",
"77777777777777777777777777777777777777777==&&=$&33333&33&$67777777777777777777777776&33==33&677777777777777777777777777777777777",
"77777777777777777777777777777777777777777=&&3$&33333333$3&&=77777777777777777777777=&=&333=&$77777777777777777777777777777777777",
"7777777777777777777777777777777777777777776=&3=&33333333&==&$=777777777777777777777$&=3333$&$77777777777777777777777777777777777",
"77777777777777777777777777777777777777777777=$&$=&33333333&=33=67777777777777777777$&33333$&$77777777777777777777777777777777777",
"7777777777777777777777777777777777777777777777=&&=&33333333&$=&$=7777777777777777776&&$33&=&=77777777777777777777777777777777777",
"777777777777777777777777777777777777777777777776&&3=$33333333$33&&677777777777777777$&3&&33=677777777777777777777777777777777777",
"7777777777777777777777777777777777777777777777777=&&3$&33333333$=&&=67777777777777776$&==&$=777777777777777777777777777777777777",
"777777777777777777777777777777777777777777777777776=&3=$33333333&3=&==7777777777777777=&&367777777777777777777777777777777777777",
"7777777777777777777777777777777777777777777777777777==&3=&33333333$=3&=677777777777777$$&=77777777777777777777777777777777777777",
"777777777777777777777777777777777777777777777777777777=$&=&&3333333&$3&&=7777777777777&3&=77777777777777777777777777777777777777",
"77777777777777777777777777777777777777777777777777777776&&3=&33333333&=3$$=7777777777733&$77777777777777777777777777777777777777",
"777777777777777777777777777777777777777777777777777777777=$&=3&33333&=3&&=677777777777=&&677777777777777777777777777777777777777",
"77777777777777777777777777777777777777777777777777777777776=&&=$&$$==&&=6777777777777733&=77777777777777777777777777777777777777",
"7777777777777777777777777777777777777777777777777777777777776&&3333&&$=777777777777777=3&=77777777777777777777777777777777777777",
"777777777777777777777777777777777777=6777777777777777777777777=$$&&==77777777777777777=3&677777777777777777777777777777777777777",
"777777777777777777777777777777777777$3==7777777777777777777777776=6777777777777777777733&=77777777777777777777777777777777777777",
"77777777777777777777777777777777777723&&=777777777777777777777777777777777777777777777&3&$77777777777777777777777777777777777777",
"7777777777777777777777777777777777773&=3&$67777777777777777777777777777777777777777777=&&,77777777777777777777777777777777777777",
"777777777777777777777777777777777777=3$&=3&$677777777777777777777777777777777777777766$&&,77777777777777777777777777777777777777",
"777777777777777777777777777777777777&3=33$=&3=67777777777777777777777777777777777776$&&3&$67777777777777777777777777777777777777",
"777777777777777777777777777777777777=&=333&3=&&=77777777777777777777777777777777776$3==&3&$7777777777777777777777777777777777777",
"777777777777777777777777777777777777&3&33333$33&==77777777777777777777777777777777=&3&33&=&=777777777777777777777777777777777777",
"777777777777777777777777777777777777&3&=333333$=&&367777777777777777777777777777773&=3333=&3777777777777777777777777777777777777",
"777777777777777777777777777777777777=&=33333333&==&$=67777777777777777777777777777=&333333&=777777777777777777777777777777777777",
"777777777777777777777777777777777777=3=&333333333&=33$=777777777777777777777777777=&3&33&=&=777777777777777777777777777777777777",
"7777777777777777777777777777777777777=&==$333333333$=33=67777777777777777777777777=&==$$=3&6777777777777777777777777777777777777",
"77777777777777777777777777777777777777=&&33&33333333&$3&&=67777777777777777777776=&=&&3&&&=7777777777777777777777777777777777777",
"7777777777777777777777777777777777777776=&&=$333333333&==&=67777777777777777776=&&&&=3$$$677777777777777777777777777777777777777",
"777777777777777777777777777777777777777776=&3=&333333333&=&3777777777777777776$&3&$677777777777777777777777777777777777777777777",
"7777777777777777777777777777777777777777777=&&3=&33333333$=&677777776==6777=$&3&==7777777777777777777777777777777777777777777777",
"777777777777777777777777777777777777777777776=&&=33333333&3&=777776$&&&$==3&3&$=777777777777777777777777777777777777777777777777",
"77777777777777777777777777777777777777777777776=&&=$333333=&37777+$&3==3&&&3&=67777777777777777777777777777777777777777777777777",
"7777777777777777777777777777777777777777777777776$&3=&3333=&&7777=&=$=3$3=&=6777777777777777777777777777777777777777777777777777",
"77777777777777777777777777777777777777777777777777$$&3=&333&$77773&$3333=&&77777777777777777777777777777777777777777777777777777",
"7777777777777777777777777777777777777777777777777776=&&3&&3&$7777=&$33333&$77777777777777777777777777777777777777777777777777777",
"777777777777777777777777777777777777777777777777777776=3&==&,77773&3333==&=77777777777777777777777777777777777777777777777777777",
"7777777777777777777777777777777777777777777777777777777=&&3&$77776&&$$$$=&677777777777777777777777777777777777777777777777777777",
"7777777777777777777777777777777777777777777777777777777776$&$77777=&3333&=777777777777777777777777777777777777777777777777777777",
"77777777777777777777777777777777777777777777777777777777776=$777777=$$$&67777777777777777777777777777777777777777777777777777777",
"77777777777777777777777777777777777777777777777777777777777767777777766777777777777777777777777777777777777777777777777777777777",
"77777777777777777777777777777777777777777777777777777777777777777777777777777777777777777777777777777777777777777777777777777777",
"77777777777777777777777777777777777777777777777777777777777777777777777777777777777777777777777777777777777777777777777777777777",
"77777777777777777777777777777777777777777777777777777777777777777777777777777777777777777777777777777777777777777777777777777777",
"77777777777777777777777777777777777777777777777777777777777777777777777777777777777777777777777777777777777777777777777777777777",
"7777777777777777777777777777777777777777777777  77 77777777777777777777777777777777777777777777777777777777777777777777777777777",
"777777777777    77777777777777     7777777777   77  77777777777               7777777777777777777777  77777777777777777777777777",
"777777777777    77777777777777     777777777    77    777777777                 77777777777777777777  77777777777777777777777777",
"777777777777    77777777777777     77777777     77      7777777                   77777777777777777    7777777777777777777777777",
"777777777777    77777777777777     77777    777777       777777                    777777777777777     7777777777777777777777777",
"777777777777    77777777777777     7777    777777777      77777    777777777        77777777777777      777777777777777777777777",
"777777777777    77777777777777     7777    77777777777     7777    77777777777       777777777777        77777777777777777777777",
"777777777777    77777777777777     77777  7777777777777   77777    777777777777      777777777777        77777777777777777777777",
"777777777777    77777777777777     77777 7777777 77777777  7777    7777777777777      7777777777    77    7777777777777777777777",
"777777777777    77777777777777     77777 77777     777777777777    77777777777777     7777777777    77    7777777777777777777777",
"777777777777    77777777777777     77777 7777       77777777777    77777777777777     777777777    7777    777777777777777777777",
"777777777777    77777777777777     7777   77777       777777777    77777777777777     77777777     7777     77777777777777777777",
"777777777777    77777777777777     7777   7777777       7777777    777777777777777     7777777    777777    77777777777777777777",
"777777777777    77777777777777     7777   77777777       777777    777777777777777     777777     777777     7777777777777777777",
"777777777777    77777777777777     77777 77777777777   77777777    777777777777777     777777    77777777    7777777777777777777",
"777777777777    77777777777777     7777777    7777777777  77777    777777777777777     77777    7777777777    777777777777777777",
"777777777777    77777777777777     777777      77777777   77777    777777777777777     77777    7777777777    777777777777777777",
"777777777777    77777777777777     7777777       777777   77777    777777777777777     7777    77777  77777    77777777777777777",
"777777777777    77777777777777     777777777       77777  77777    77777777777777     7777     77777  77777     7777777777777777",
"777777777777    77777777777777     7777777777       7777 777777    77777777777777     7777    77777 77 77777    7777777777777777",
"777777777777     7777777777777     777777777777    77777 777777    77777777777777     777    777777 77 77777     777777777777777",
"777777777777     7777777777777     7777  777777777777777 777777    7777777777777     7777    77777 7777 77777    777777777777777",
"777777777777     777777777777     77777   7777777777777   77777    777777777777      777    77777  7777  77777    77777777777777",
"777777777777      7777777777      77777     77777777777   77777    77777777777      7777    77777  7777  77777    77777777777777",
"7777777777777      77777777       77777       77777777    77777     7777777         777    77777777777777777777    7777777777777",
"7777777777777                    7777777       777777    777777                    777     77777777777777777777     777777777777",
"77777777777777                  7777777777      7     777777777                  77777    7777777777777777777777    777777777777",
"777777777777777                7777777777777    7    7777777777                 77777    777777777777777777777777    77777777777",
"77777777777777777             777777777777777   7   77777777777              777777777777777777777777777777777777777777777777777",
"77777777777777777777      777777777777777777777777 77777777777777777777777777777777777777777777777777777777777777777777777777777",
"77777777777777777777777777777777777777777777777777777777777777777777777777777777777777777777777777777777777777777777777777777777",
"77777777777777777777777777777777777777777777777777777777777777777777777777777777777777777777777777777777777777777777777777777777"
};
