/* XPM */
static char *bitcoin___[] = {
/* columns rows colors chars-per-pixel */
"32 32 11 1 ",
"  c #1D1C1D",
". c #1C1D1D",
"X c #1C1D1E",
"o c #1D1D1E",
"O c #1C1E1F",
"+ c #0CB397",
"@ c #0DB198",
"# c #0EB198",
"$ c #0DB298",
"% c #0EB298",
"& c None",
/* pixels */
"&&&&&&&&&&&&&&&&&&&&&&&&&&&&&&&&",
"&&&&&&&&&&&&&&&&&&&&&&&&&&&&&&&&",
"&&&&&&&&&&&&&%$%&%%&&&&&&&&&&&&&",
"&&&&&&&&&&&&%%@+&+$%%&&&&&&&&&&&",
"&&&&&&&&&&%%%&&&&%%$$$&&&&&&&&&&",
"&&&&&&&&&++%&&&&&&&%$$%&&&&&&&&&",
"&&&&&&&&&@@&&&&&&&&&&++&&&&&&&&&",
"&&&&&&&&&&@&&&&&&&&&&&+&&&&&&&&&",
"&&&&&&&&&&@&&&@+%+&&&&&&&&&&&&&&",
"&&&&&&&&&@@&&&&++++$&&&&&&&&&&&&",
"&&&&&&&&&++&&&&&%%$$%&&&&&&&&&&&",
"&&&&&&&&&@@&&&&&&&%%%&&&&&&&&&&&",
"&&&&&&&&&&&+@+&&&&&&&&&&&&&&&&&&",
"&&&&&&&&&&&@++%&&&&&&%%&&&&&&&&&",
"&&&&&&&&&&&&@+++%&&&&%%&&&&&&&&&",
"&&&&&&&&&&&&&&@+$%&&&&%&&&&&&&&&",
"&&&&&&&&&&&&&&&++%&&&&%&&&&&&&&&",
"&&&&&&&&&@%&&&&&&&&&&+%&&&&&&&&&",
"&&&&&&&&&+++@&&&&&&&&$%&&&&&&&&&",
"&&&&&&&&&%@+++&&&&&&$%%&&&&&&&&&",
"&&&&&&&&&&&@@+@&&%%%&&&&&&&&&&&&",
"&&&&&&&&&&&&&@+&@$%&&&&&&&&&&&&&",
"&&&&&&&&&&&&&&@&&+&&&&&&&&&&&&&&",
"&&&&&&&&&&&&&&&&&&&&&&&&&&&&&&&&",
"&&&o&&&&o&&ooo&&ooO &&&&&&&&&&&&",
"&&&o&&&oo&o&&o&&o&&oo&&&OO&&&&&&",
"&&&o&&&&o&&&o&&&o&&&oo&&O&O&&&&&",
"&&&O&&&oo&o&&o&&o&&&oo&o&&O&&&&&",
"&&&o&&&oo&&o&&&&o&&&oo&o&&&o&&&&",
"&&&o&&&oo&&&&&&&o&&&o&o&&&&o&&&&",
"&&&ooooo&&oo&&&&oooo&&o&&&&&o&&&",
"&&&&&o&&&&&&&&&&&&&&&&&&&&&&&&&&"
};
